<?xml version="1.0" standalone="no"?><!DOCTYPE svg PUBLIC "-//W3C//DTD SVG 1.1//EN" "http://www.w3.org/Graphics/SVG/1.1/DTD/svg11.dtd"><svg t="1494766251551" class="icon" style="" viewBox="0 0 1024 1024" version="1.1" xmlns="http://www.w3.org/2000/svg" p-id="3219" xmlns:xlink="http://www.w3.org/1999/xlink" width="48" height="48"><defs><style type="text/css"></style></defs><path d="M512 0C229.248 0 0 229.248 0 512s229.248 512 512 512 512-229.248 512-512S794.752 0 512 0zM783.36 523.008c-6.08 19.136-13.696 36.864-22.656 53.504-9.024 16.512-18.88 31.744-29.888 45.824-10.752 14.08-21.632 26.752-32.64 38.08-16.832 17.216-34.176 33.28-52.416 48-18.24 14.848-35.712 27.712-52.16 38.4-16.64 10.688-31.616 19.264-45.248 25.472-13.568 6.208-24.192 9.344-31.68 9.344-8.448 0.512-19.136-2.496-32-8.768-13.056-6.4-27.392-14.72-42.816-25.472-15.552-10.688-31.872-23.296-49.088-38.016-17.216-14.656-34.112-30.208-50.88-46.528-10.944-10.496-22.656-22.656-35.2-36.416C294.144 612.544 282.304 597.44 271.104 580.864 260.032 564.288 250.496 546.368 242.56 527.104 234.624 507.84 230.272 487.296 229.312 465.472c-0.768-21.76 1.472-42.24 6.976-61.248 5.376-19.072 13.568-36.096 24.512-51.264 10.88-15.04 24.32-27.776 40.192-38.016 15.936-10.176 34.048-17.472 54.144-21.632C365.056 291.264 375.104 290.944 385.28 292.416 395.2 293.888 405.12 296.384 414.784 299.904c9.536 3.648 18.88 8.128 27.584 13.632 8.96 5.376 17.216 11.008 25.216 16.96 18.432 13.824 35.968 30.336 52.8 49.536 13.76-17.152 28.48-32.64 44.032-46.4 13.44-11.392 28.608-21.632 45.504-30.784 17.024-9.28 34.624-13.248 53.12-12.032 25.984 2.176 47.616 8.384 65.024 18.624 17.472 10.24 31.232 23.232 41.536 38.848 10.24 15.808 17.216 33.6 21.056 53.504 3.776 19.904 5.056 40.384 3.776 61.312C793.088 483.968 789.376 504 783.36 523.008z" p-id="3220" fill="#cdcdcd"></path></svg>