<?xml version="1.0" standalone="no"?><!DOCTYPE svg PUBLIC "-//W3C//DTD SVG 1.1//EN" "http://www.w3.org/Graphics/SVG/1.1/DTD/svg11.dtd"><svg t="1494766348433" class="icon" style="" viewBox="0 0 1024 1024" version="1.1" xmlns="http://www.w3.org/2000/svg" p-id="15440" xmlns:xlink="http://www.w3.org/1999/xlink" width="48" height="48"><defs><style type="text/css"></style></defs><path d="M434.6 479.4c-11.3 0-20.4 9.1-20.4 20.4 0 11.2 9.1 20.4 20.4 20.4 11.3 0 20.4-9.1 20.4-20.4C455 488.5 445.8 479.4 434.6 479.4zM597.6 479.4c-11.3 0-20.4 9.1-20.4 20.4 0 11.2 9.1 20.4 20.4 20.4 11.3 0 20.4-9.1 20.4-20.4C617.9 488.5 608.8 479.4 597.6 479.4zM516.1 479.4c-11.3 0-20.4 9.1-20.4 20.4 0 11.2 9.1 20.4 20.4 20.4 11.3 0 20.4-9.1 20.4-20.4C536.4 488.5 527.3 479.4 516.1 479.4zM512 72C269 72 72 269 72 512s197 440 440 440c243 0 440-197 440-440S755 72 512 72zM707.6 601.6c0 18-14.6 32.6-32.6 32.6L487.1 634.2c0 0-19.1 51.3-24 65.2 0 0-43.1-65.2-48.9-65.2-15.5 0-65.2 0-65.2 0-18 0-32.6-14.6-32.6-32.6L316.4 397.9c0-18 14.6-32.6 32.6-32.6L675 365.3c18 0 32.6 14.6 32.6 32.6L707.6 601.6z" p-id="15441" fill="#cdcdcd"></path></svg>