<?xml version="1.0" standalone="no"?><!DOCTYPE svg PUBLIC "-//W3C//DTD SVG 1.1//EN" "http://www.w3.org/Graphics/SVG/1.1/DTD/svg11.dtd"><svg t="1494292196497" class="icon" style="" viewBox="0 0 1024 1024" version="1.1" xmlns="http://www.w3.org/2000/svg" p-id="2603" xmlns:xlink="http://www.w3.org/1999/xlink" width="48" height="48"><defs><style type="text/css"></style></defs><path d="M906.758786 159.750377c-8.596795-2.755764-17.993816 0.361227-23.24133 7.710612-0.14224 0.199545-15.103999 19.976984-45.1145 19.976984-22.039969 0-35.931351-11.063987-41.836851-17.047258l0-36.556591c0-7.643074-4.198625-14.670118-10.92891-18.291598-0.981351-0.528026-24.515347-13.078877-65.707514-25.484418C682.407088 78.759785 622.0003 65.290005 547.305087 65.290005c-94.376461 0-163.395394 16.494673-200.300932 28.109198l0-7.338129c0-11.472286-9.299807-20.771069-20.771069-20.771069l-87.2389 0c-11.472286 0-20.771069 9.299807-20.771069 20.771069l0 743.865835L123.57855 829.92691c-11.471262 0-20.771069 9.299807-20.771069 20.771069l0 87.2389c0 11.471262 9.299807 20.771069 20.771069 20.771069l315.722708 0c11.471262 0 20.771069-9.299807 20.771069-20.771069l0-87.2389c0-11.471262-9.299807-20.771069-20.771069-20.771069l-92.297103 0 0-212.81699c28.248368-9.842159 99.945293-30.463826 204.91809-30.463826 27.13808 0 51.934836 1.411139 74.319659 3.650133l0 19.198248c0 5.290493 2.01796 10.379395 5.641487 14.231119 2.087545 2.217505 52.189639 54.313 147.775648 54.313 97.472985 0 136.241964-54.411237 137.844461-56.726979 2.4017-3.473101 3.690042-7.594979 3.690042-11.818163L921.193543 179.531909C921.192519 170.501232 915.358651 162.506141 906.758786 159.750377zM418.529165 917.166833 144.349619 917.166833l0-45.696762 89.00615 0c1.794879 0.505513 3.680832 0.795109 5.637394 0.795109l87.2389 0c1.956561 0 3.842515-0.289596 5.637394-0.795109l86.659709 0L418.529165 917.166833zM259.764232 829.927933 259.764232 106.833167l45.696762 0 0 9.865695c-0.738827 2.14178-1.173732 4.406356-1.173732 6.750751l0 479.81395c0 2.343371 0.427742 4.622274 1.173732 6.776334l0 219.888036L259.764232 829.927933zM347.003132 573.35437 347.003132 137.212058c27.857465-9.850345 98.16781-30.379914 200.300932-30.379914 69.001537 0 124.732839 12.296047 159.333892 22.611997 21.964244 6.548136 38.440497 13.150508 48.383964 17.530258L755.021919 573.474097c-21.574365-6.885827-54.636365-15.545044-98.1586-21.474081-2.931772-1.583055-6.28617-2.483564-9.851369-2.483564-1.713015 0-3.369747 0.230244-4.962012 0.621147-26.616194-3.060709-56.724932-5.033643-90.128717-5.033643C454.824813 545.104979 384.360971 561.743938 347.003132 573.35437zM879.650381 601.87596c-9.937326 10.249435-39.887452 34.621519-99.992365 34.621519-61.129242 0-98.425683-25.118074-111.873973-36.168758l0-4.586458c63.388702 10.381441 98.444103 25.990954 99.310843 26.384927 6.424316 2.961448 13.916964 2.452865 19.882839-1.358951 5.974062-3.815909 9.588379-10.414187 9.588379-17.503653l0-383.228171c11.342326 5.173836 25.273616 8.945743 41.836851 8.945743 16.272615 0 30.018687-3.560082 41.24845-8.484232L879.651404 601.87596z" p-id="2604" fill="#cc3434"></path></svg>