<?xml version="1.0" standalone="no"?><!DOCTYPE svg PUBLIC "-//W3C//DTD SVG 1.1//EN" "http://www.w3.org/Graphics/SVG/1.1/DTD/svg11.dtd"><svg t="1494766221308" class="icon" style="" viewBox="0 0 1024 1024" version="1.1" xmlns="http://www.w3.org/2000/svg" p-id="1744" xmlns:xlink="http://www.w3.org/1999/xlink" width="48" height="48"><defs><style type="text/css"></style></defs><path d="M512 922.496c-226.752 0-410.56-183.808-410.56-410.496 0-226.752 183.808-410.56 410.56-410.56 226.752 0 410.56 183.808 410.56 410.56C922.56 738.752 738.752 922.496 512 922.496zM686.592 503.936c-21.12-12.224-268.416-155.008-280.768-162.112C390.336 332.992 374.72 344.256 374.72 359.36c0 11.648 0 307.968 0 324.864 0 16.64 17.28 24.704 30.464 17.408 17.984-9.984 266.24-153.536 281.408-162.496C700.224 531.136 700.416 512 686.592 503.936z" p-id="1745" fill="#cc3434"></path></svg>
