<?xml version="1.0" standalone="no"?><!DOCTYPE svg PUBLIC "-//W3C//DTD SVG 1.1//EN" "http://www.w3.org/Graphics/SVG/1.1/DTD/svg11.dtd"><svg t="1494292154290" class="icon" style="" viewBox="0 0 1024 1024" version="1.1" xmlns="http://www.w3.org/2000/svg" p-id="2389" xmlns:xlink="http://www.w3.org/1999/xlink" width="48" height="48"><defs><style type="text/css"></style></defs><path d="M310.606177 591.250972c-45.440935 0-80.84119 32.850176-80.84119 74.78731l0 150.168138 161.682379 0L391.447367 666.038282C391.447367 624.102171 356.046089 591.250972 310.606177 591.250972zM351.538425 776.297478l-81.864496 0L269.673929 666.038282c0-19.497053 17.931395-34.769898 40.932248-34.769898s40.932248 15.272845 40.932248 34.769898L351.538425 776.297478z" p-id="2390" fill="#cc3434"></path><path d="M930.86481 926.787958l-26.740014 0 0-625.64941c2.303462-9.022491-1.964748-18.718317-10.66899-22.937408L472.997708 74.40971c-1.532913-0.743944-3.115967-1.248434-4.712325-1.576915-2.106987-0.757247-4.370541-1.192152-6.742565-1.192152-11.04966 0-19.954471 8.958022-19.954471 20.008706l0 272.79706-302.060547 160.792103c-0.671289 0.357134-1.306762 0.753153-1.919722 1.172709-6.077416 3.430122-10.174734 9.948583-10.174734 17.439184l0 382.936529-32.894178 0c-11.050684 0-20.008706 8.959046-20.008706 20.008706 0 11.04966 8.958022 20.008706 20.008706 20.008706L930.86481 966.804347c11.04966 0 20.008706-8.959046 20.008706-20.008706C950.873516 935.747004 941.91447 926.787958 930.86481 926.787958zM481.498312 922.020374 481.498312 122.999358l382.716518 185.499831 0 617.202017-106.423845 0L757.790986 477.290477c0-41.237193-37.57171-74.78731-83.911108-74.78731s-83.911108 33.550117-83.911108 74.78731l0 448.409706L481.147318 925.700183C481.369376 924.505985 481.498312 923.279041 481.498312 922.020374zM629.877711 919.560346 629.877711 477.290477c0-18.84623 20.141736-34.769898 44.002167-34.769898s44.002167 15.922644 44.002167 34.769898l0 442.269869L629.877711 919.560346zM441.940364 925.700183 167.343309 925.700183 167.343309 555.766806l274.246061-145.984862 0 512.23843C441.58937 923.279041 441.71933 924.505985 441.940364 925.700183z" p-id="2391" fill="#cc3434"></path></svg>